# xmcd
#
# Track frame offsets:
#	150
#	29965
#	48480
#	66845
#	88180
#	110260
#	130672
#	153067
#	178040
#	194900
#	211717
#	228510
#	245405
#	262422
#	276860
#
# Disc length: 3940 seconds
#
# Revision: 1
# Processed by: cddbd v1.5.1PL0 Copyright (c) Steve Scherf et al.
# Submitted via: CDex 1.50Beta5
#
DISCID=e20f620f
DTITLE=44MAGNUM - LIVE and RARE Disc 4
DYEAR=2000
DGENRE=Rock
TTITLE0=I’M LONELY MAN
TTITLE1=COME ON LET’S GO
TTITLE2=TAKE ME OUT
TTITLE3=OW!
TTITLE4=OW!
TTITLE5=OW!
TTITLE6=EVIL HERO
TTITLE7=I’M LONELY MAN
TTITLE8=STREET ROCK’N ROLLER
TTITLE9=I GIVE YOU MY LOVE
TTITLE10=I GIVE YOU MY LOVE
TTITLE11=STREET ROCK’N ROLLER
TTITLE12=I GIVE YOU MY LOVE
TTITLE13=NO STANDING STILL
TTITLE14=I’M ON FIRE
EXTD=
EXTT0=
EXTT1=
EXTT2=
EXTT3=
EXTT4=
EXTT5=
EXTT6=
EXTT7=
EXTT8=
EXTT9=
EXTT10=
EXTT11=
EXTT12=
EXTT13=
EXTT14=
PLAYORDER=
